<?xml version="1.0" encoding="utf-8"?>
<!DOCTYPE svg PUBLIC "-//W3C//DTD SVG 20010904//EN" "http://www.w3.org/TR/2001/REC-SVG-20010904/DTD/svg10.dtd">
<svg version="1.0" xmlns="http://www.w3.org/2000/svg" width="1892pt" height="1419pt" viewBox="0 0 1892 1419" style="" preserveAspectRatio="xMidYMid meet">
<g fill="#3E63DDFF" stroke="#3E63DDFF">
<path d="M 189.413 66.750 C 181.739 70.898 178.451 73.990 175.855 79.500 L 173.500 84.500 173.500 651.500 L 173.500 1218.500 175.854 1224.000 C 178.365 1229.867 182.505 1235.000 184.728 1235.000 C 185.472 1235.000 187.450 1236.013 189.124 1237.250 L 192.167 1239.500 554.068 1239.761 L 915.968 1240.022 917.526 1242.399 C 918.868 1244.447 919.043 1249.016 918.792 1275.340 C 918.605 1294.935 918.124 1306.278 917.452 1306.950 C 916.737 1307.664 880.469 1308.077 803.436 1308.248 L 690.470 1308.500 685.563 1311.750 C 682.865 1313.538 680.397 1315.000 680.079 1315.000 C 679.760 1315.000 678.197 1316.633 676.604 1318.630 C 672.545 1323.716 670.755 1333.272 672.226 1342.000 C 673.729 1350.919 677.775 1356.269 686.963 1361.490 C 690.480 1363.489 691.930 1363.500 948.000 1363.500 L 1205.500 1363.500 1210.460 1361.000 C 1216.970 1357.719 1222.577 1350.357 1224.080 1343.116 C 1225.614 1335.726 1224.462 1325.749 1221.668 1322.222 C 1220.476 1320.716 1219.008 1318.588 1218.407 1317.492 C 1217.806 1316.396 1215.396 1314.201 1213.052 1312.614 C 1209.680 1310.330 1207.092 1309.549 1200.646 1308.872 C 1196.165 1308.402 1144.875 1308.037 1086.666 1308.061 C 1007.005 1308.095 980.482 1307.815 979.416 1306.930 C 977.380 1305.241 977.307 1242.820 979.339 1241.133 C 980.315 1240.323 1078.942 1239.951 1342.756 1239.761 L 1704.833 1239.500 1707.876 1237.250 C 1709.550 1236.013 1711.303 1235.000 1711.772 1235.000 C 1713.367 1235.000 1717.776 1229.519 1720.393 1224.283 L 1723.000 1219.066 1723.000 651.993 L 1723.000 84.920 1720.856 80.710 C 1718.208 75.509 1712.158 68.000 1710.615 68.000 C 1709.985 68.000 1707.791 67.100 1705.739 66.000 C 1702.017 64.005 1700.097 64.000 948.254 64.000 L 194.500 64.000 189.413 66.750 M 1666.800 120.200 C 1668.288 121.688 1668.575 1181.527 1667.088 1182.446 C 1666.130 1183.038 229.927 1183.260 229.335 1182.669 C 229.148 1182.481 228.994 943.444 228.994 651.475 C 228.994 227.246 229.246 120.462 230.247 119.826 C 230.936 119.389 554.172 119.024 948.550 119.015 C 1504.939 119.003 1665.869 119.269 1666.800 120.200 "/></g>
<g fill="#3E63DDFF" stroke="#3E63DDFF">
<path d="M 413.812 634.028 C 406.284 634.489 395.052 635.571 388.852 636.433 C 382.653 637.295 377.225 638.000 376.790 638.000 C 376.356 638.000 376.000 691.775 376.000 757.500 L 376.000 877.000 394.000 877.000 L 412.000 877.000 412.000 825.351 L 412.000 773.701 427.750 774.287 C 449.225 775.086 457.112 777.669 464.794 786.418 C 471.274 793.798 475.215 804.302 480.021 826.998 C 484.013 845.852 487.471 859.631 490.624 869.250 L 493.164 877.000 512.037 877.000 L 530.910 877.000 528.452 870.470 C 527.100 866.878 522.184 848.541 517.526 829.720 C 510.602 801.739 508.294 793.950 504.863 787.000 C 499.998 777.145 491.306 767.727 483.713 764.083 L 478.926 761.786 487.213 757.681 C 493.712 754.462 497.339 751.734 504.025 745.038 C 517.396 731.646 522.273 719.497 522.306 699.500 C 522.326 687.410 520.079 677.035 515.471 667.943 C 512.135 661.360 501.550 650.317 494.513 646.077 C 477.672 635.930 450.063 631.808 413.812 634.028 M 455.919 663.654 C 468.957 667.043 478.905 675.139 483.194 685.853 C 485.098 690.608 485.458 693.403 485.477 703.552 C 485.500 715.495 485.466 715.672 481.728 723.237 C 477.497 731.797 471.862 737.468 463.621 741.459 C 454.297 745.975 447.943 747.000 429.290 747.000 L 412.000 747.000 412.000 705.559 C 412.000 677.138 412.337 663.910 413.073 663.455 C 415.027 662.247 432.356 661.191 441.500 661.723 C 446.450 662.011 452.938 662.880 455.919 663.654 "/></g>
<g fill="#3E63DDFF" stroke="#3E63DDFF">
<path d="M 872.561 700.143 C 863.877 701.256 850.754 705.728 843.239 710.134 C 840.082 711.985 833.428 717.550 828.451 722.500 C 820.570 730.338 818.735 732.856 814.243 742.000 C 801.320 768.303 799.723 802.004 810.057 830.319 C 818.752 854.143 838.115 871.777 862.500 878.079 C 868.510 879.632 873.610 880.147 883.000 880.147 C 897.912 880.147 907.406 878.040 919.500 872.048 C 940.278 861.753 954.196 843.950 960.625 819.448 C 962.786 811.212 963.317 806.574 963.713 792.500 C 964.127 777.746 963.905 774.113 962.027 765.000 C 958.069 745.792 950.672 731.484 938.629 719.738 C 927.404 708.790 913.943 702.489 896.636 700.082 C 887.808 698.854 882.505 698.868 872.561 700.143 M 897.722 729.169 C 906.067 732.291 913.975 740.510 918.941 751.222 C 925.180 764.678 926.450 771.150 926.450 789.500 C 926.450 807.857 925.180 814.322 918.930 827.802 C 913.855 838.748 905.223 847.650 896.500 850.933 C 887.990 854.136 875.845 853.557 868.089 849.579 C 857.361 844.076 848.563 831.825 843.963 815.984 C 841.261 806.677 840.159 783.750 841.916 773.364 C 848.015 737.297 870.935 719.147 897.722 729.169 "/></g>
<g fill="#3E63DDFF" stroke="#3E63DDFF">
<path d="M 881.430 449.980 C 852.212 454.118 828.869 472.766 818.574 500.190 C 809.474 524.430 809.734 560.087 819.175 582.766 C 830.499 609.967 853.168 626.965 882.115 629.959 C 917.488 633.619 948.972 616.151 963.438 584.840 C 973.284 563.530 975.328 531.479 968.398 507.073 C 960.195 478.182 940.557 458.169 914.000 451.636 C 905.982 449.664 889.556 448.828 881.430 449.980 M 907.672 480.061 C 923.893 487.913 933.634 507.615 934.728 534.785 C 935.353 550.296 934.087 559.925 929.917 571.374 C 926.269 581.390 922.210 587.694 915.400 593.917 C 905.571 602.901 891.859 605.530 879.288 600.841 C 871.518 597.944 861.542 588.063 857.223 578.987 C 850.929 565.760 849.501 558.376 849.586 539.500 C 849.674 520.082 851.186 512.538 857.504 499.992 C 868.065 479.020 888.637 470.847 907.672 480.061 "/></g>
<g fill="#3E63DDFF" stroke="#3E63DDFF">
<path d="M 1436.531 700.046 C 1403.404 705.245 1379.665 730.541 1372.509 768.268 C 1367.556 794.377 1370.807 821.407 1381.316 841.500 C 1384.352 847.304 1387.834 851.856 1394.003 858.084 C 1401.112 865.261 1404.061 867.431 1412.003 871.328 C 1417.226 873.891 1424.200 876.679 1427.500 877.524 C 1447.044 882.525 1477.822 880.809 1499.578 873.506 C 1503.924 872.047 1507.614 870.719 1507.778 870.555 C 1508.241 870.092 1502.827 846.595 1502.060 845.739 C 1501.685 845.320 1498.705 845.905 1495.439 847.039 C 1480.064 852.374 1458.845 854.339 1446.000 851.617 C 1421.872 846.504 1408.613 830.988 1405.525 804.250 L 1404.804 798.000 1460.277 798.000 L 1515.750 798.000 1516.375 794.875 C 1517.342 790.040 1517.110 776.446 1515.891 766.500 C 1511.712 732.396 1493.733 708.391 1467.253 701.559 C 1459.465 699.549 1444.417 698.808 1436.531 700.046 M 1455.972 726.584 C 1471.501 731.196 1479.962 743.850 1482.494 766.250 L 1483.144 772.000 1444.572 772.000 L 1406.000 772.000 1406.000 769.394 C 1406.000 761.177 1413.196 744.110 1419.691 736.920 C 1428.868 726.762 1443.008 722.734 1455.972 726.584 "/></g>
<g fill="#3E63DDFF" stroke="#3E63DDFF">
<path d="M 600.000 699.915 C 568.710 704.367 545.658 726.656 536.309 761.500 C 533.826 770.757 533.622 773.023 533.563 792.000 C 533.491 815.410 534.826 822.704 541.893 837.500 C 551.566 857.752 568.755 872.110 589.727 877.456 C 604.612 881.250 628.960 881.278 647.000 877.521 C 657.459 875.343 669.997 871.064 670.014 869.668 C 670.021 869.026 668.814 863.182 667.330 856.681 C 665.137 847.070 664.341 844.961 663.067 845.390 C 639.400 853.353 617.859 854.980 601.793 850.018 C 589.633 846.262 579.296 837.538 573.561 826.192 C 571.076 821.276 568.000 808.359 568.000 802.840 L 568.000 798.000 623.500 798.000 L 679.000 798.000 678.999 783.750 C 678.996 753.221 672.243 733.294 656.515 717.401 C 647.865 708.661 640.491 704.317 629.568 701.529 C 622.296 699.673 607.414 698.860 600.000 699.915 M 622.667 727.963 C 629.262 730.870 636.306 738.061 639.475 745.124 C 642.368 751.570 644.956 762.436 644.983 768.250 L 645.000 772.000 606.412 772.000 L 567.824 772.000 568.508 767.750 C 569.483 761.692 573.777 749.115 576.275 745.000 C 582.063 735.465 590.099 728.791 598.723 726.355 C 605.241 724.515 616.569 725.275 622.667 727.963 "/></g>
<g fill="#3E63DDFF" stroke="#3E63DDFF">
<path d="M 982.000 761.869 C 982.000 810.470 982.269 822.283 983.545 829.598 C 986.529 846.711 992.054 858.294 1001.589 867.431 C 1010.781 876.238 1022.264 880.284 1038.000 880.261 C 1057.764 880.231 1074.642 872.270 1086.131 857.561 C 1088.519 854.502 1090.763 852.000 1091.117 852.000 C 1091.470 852.000 1092.084 857.625 1092.480 864.500 L 1093.201 877.000 1109.253 877.000 L 1125.306 877.000 1124.657 865.750 C 1124.301 859.563 1124.007 820.413 1124.005 778.750 L 1124.000 703.000 1105.530 703.000 L 1087.060 703.000 1086.780 762.750 L 1086.500 822.500 1083.599 828.782 C 1079.867 836.864 1071.357 844.944 1063.285 848.071 C 1046.818 854.448 1030.370 848.128 1023.480 832.777 C 1018.466 821.603 1018.073 816.150 1018.035 757.250 L 1018.000 703.000 1000.000 703.000 L 982.000 703.000 982.000 761.869 "/></g>
<g fill="#3E63DDFF" stroke="#3E63DDFF">
<path d="M 1064.390 450.407 C 1048.448 453.446 1034.389 462.922 1024.851 477.057 L 1023.203 479.500 1022.649 477.000 C 1022.345 475.625 1021.806 469.663 1021.452 463.750 L 1020.808 453.000 1004.794 453.000 L 988.781 453.000 989.364 456.750 C 989.684 458.813 990.251 497.963 990.624 543.750 L 991.301 627.000 1009.151 627.000 L 1027.000 627.000 1027.012 570.750 C 1027.025 510.411 1027.080 509.654 1032.250 499.480 C 1035.532 493.020 1043.519 485.577 1050.782 482.208 C 1055.478 480.030 1057.930 479.559 1064.500 479.570 C 1080.637 479.599 1089.631 486.954 1095.594 505.000 C 1097.249 510.007 1097.443 515.716 1097.764 568.750 L 1098.117 627.000 1116.114 627.000 L 1134.110 627.000 1133.764 564.250 C 1133.431 503.790 1133.341 501.222 1131.284 493.882 C 1125.084 471.758 1111.835 457.108 1093.032 451.584 C 1085.292 449.311 1072.827 448.798 1064.390 450.407 "/></g>
<g fill="#3E63DDFF" stroke="#3E63DDFF">
<path d="M 579.000 506.000 L 579.000 627.000 597.000 627.000 L 615.000 627.000 615.000 574.000 L 615.000 521.000 656.500 521.000 L 698.000 521.000 698.000 506.011 L 698.000 491.022 656.750 490.761 L 615.500 490.500 615.238 453.250 L 614.976 416.000 659.988 416.000 L 705.000 416.000 705.000 400.500 L 705.000 385.000 642.000 385.000 L 579.000 385.000 579.000 506.000 "/></g>
<g fill="#3E63DDFF" stroke="#3E63DDFF">
<path d="M 1186.250 415.793 L 1169.000 421.377 1169.000 437.189 L 1169.000 453.000 1156.500 453.000 L 1144.000 453.000 1144.000 466.500 L 1144.000 480.000 1156.432 480.000 L 1168.863 480.000 1169.238 534.750 C 1169.595 586.936 1169.713 589.859 1171.745 597.169 C 1174.419 606.790 1176.690 611.246 1181.963 617.228 C 1187.538 623.552 1197.893 628.584 1208.108 629.935 C 1216.242 631.010 1232.066 630.067 1240.023 628.033 L 1244.546 626.877 1244.242 616.188 C 1243.827 601.578 1243.304 598.669 1241.235 599.463 C 1237.580 600.866 1224.270 601.244 1220.648 600.049 C 1213.010 597.528 1208.284 591.396 1206.123 581.201 C 1205.382 577.702 1205.000 559.613 1205.000 527.951 L 1205.000 480.000 1226.000 480.000 L 1247.000 480.000 1247.000 466.500 L 1247.000 453.000 1226.000 453.000 L 1205.000 453.000 1205.000 431.500 C 1205.000 419.675 1204.663 410.047 1204.250 410.104 C 1203.838 410.161 1195.738 412.721 1186.250 415.793 "/></g>
<g fill="#3E63DDFF" stroke="#3E63DDFF">
<path d="M 738.315 700.008 C 712.248 703.819 693.372 720.912 689.924 743.828 C 688.002 756.606 690.940 767.769 698.842 777.710 C 706.268 787.052 713.951 792.041 739.378 804.031 C 755.952 811.846 761.978 818.868 761.994 830.384 C 762.029 854.189 731.581 861.209 698.774 844.961 L 693.047 842.125 689.968 852.313 C 688.275 857.916 686.464 863.804 685.945 865.398 C 684.694 869.239 685.569 870.127 693.737 873.305 C 713.491 880.990 737.411 882.581 757.000 877.512 C 772.296 873.553 786.297 862.895 791.976 850.886 C 796.015 842.347 797.304 835.265 796.770 824.558 C 796.221 813.560 793.634 805.846 787.985 798.363 C 781.528 789.811 773.961 784.570 754.081 774.879 C 743.951 769.941 733.974 764.563 731.910 762.929 C 722.341 755.350 721.498 741.502 730.083 732.917 C 739.060 723.940 757.712 723.590 775.899 732.056 C 779.419 733.694 782.496 734.837 782.737 734.596 C 782.978 734.355 784.901 728.610 787.010 721.829 C 790.307 711.228 790.641 709.341 789.389 708.365 C 786.523 706.132 769.346 701.102 761.026 700.061 C 751.643 698.886 746.075 698.873 738.315 700.008 "/></g>
<g fill="#3E63DDFF" stroke="#3E63DDFF">
<path d="M 1315.906 699.965 C 1295.950 702.505 1280.276 709.500 1266.886 721.841 C 1248.841 738.472 1239.000 763.153 1239.000 791.776 C 1239.000 838.025 1262.150 870.150 1301.507 878.518 C 1312.060 880.762 1331.677 880.800 1343.248 878.600 C 1355.119 876.342 1364.989 873.191 1365.659 871.445 C 1366.115 870.259 1362.294 846.154 1361.501 845.213 C 1361.369 845.056 1357.939 846.042 1353.880 847.404 C 1310.202 862.066 1275.978 837.097 1276.007 790.590 C 1276.028 757.784 1292.502 734.059 1318.816 728.942 C 1327.983 727.159 1341.879 728.220 1351.046 731.403 C 1355.146 732.826 1358.898 734.106 1359.384 734.245 C 1360.477 734.560 1367.333 709.310 1366.643 707.511 C 1366.095 706.084 1356.568 702.763 1348.119 701.054 C 1340.606 699.534 1323.768 698.965 1315.906 699.965 "/></g>
<g fill="#3E63DDFF" stroke="#3E63DDFF">
<path d="M 794.459 450.395 C 785.875 452.480 779.780 456.086 772.418 463.432 C 767.339 468.501 764.369 472.535 761.918 477.694 C 760.038 481.650 758.230 484.913 757.900 484.944 C 757.180 485.011 756.000 469.426 756.000 459.846 L 756.000 453.000 739.864 453.000 L 723.728 453.000 724.364 457.640 C 724.714 460.191 725.000 499.341 725.000 544.640 L 725.000 627.000 743.500 627.000 L 762.000 627.000 762.017 576.250 C 762.036 520.411 762.302 517.289 767.978 506.044 C 772.315 497.451 778.032 491.602 785.856 487.750 C 792.005 484.723 793.162 484.500 802.729 484.500 L 813.000 484.500 813.000 467.381 L 813.000 450.262 809.250 449.642 C 804.040 448.781 800.325 448.970 794.459 450.395 "/></g>
<g fill="#3E63DDFF" stroke="#3E63DDFF">
<path d="M 1219.949 700.826 C 1216.346 701.766 1211.051 704.042 1208.182 705.883 C 1200.666 710.706 1191.820 720.799 1188.401 728.453 C 1186.805 732.024 1185.227 734.958 1184.892 734.973 C 1183.959 735.014 1183.000 723.807 1183.000 712.853 L 1183.000 703.000 1166.855 703.000 L 1150.711 703.000 1151.348 709.750 C 1151.699 713.463 1151.989 752.613 1151.993 796.750 L 1152.000 877.000 1170.500 877.000 L 1189.000 877.000 1189.000 825.660 C 1189.000 778.137 1189.144 773.756 1190.938 766.741 C 1192.005 762.572 1193.854 757.246 1195.049 754.904 C 1198.534 748.074 1206.315 740.590 1213.278 737.374 C 1218.850 734.800 1220.571 734.500 1229.750 734.500 L 1240.000 734.500 1240.000 717.381 L 1240.000 700.262 1236.250 699.642 C 1230.565 698.702 1227.126 698.952 1219.949 700.826 "/></g>
<g fill="#3E63DDFF" stroke="#3E63DDFF">
<path d="M 378.250 251.661 L 326.000 278.143 326.000 284.830 L 326.000 291.517 379.000 318.340 L 432.000 345.162 432.000 336.231 L 432.000 327.299 389.001 306.399 C 365.352 294.905 346.002 285.239 346.001 284.919 C 346.001 284.600 365.341 274.925 388.981 263.419 L 431.961 242.500 431.981 233.750 C 431.991 228.938 431.663 225.040 431.250 225.090 C 430.838 225.139 406.988 237.096 378.250 251.661 "/></g>
<g fill="#3E63DDFF" stroke="#3E63DDFF">
<path d="M 1462.022 1012.748 L 1462.044 1021.500 1504.985 1042.000 C 1528.602 1053.275 1547.942 1062.755 1547.963 1063.066 C 1547.983 1063.377 1528.763 1072.847 1505.250 1084.110 L 1462.500 1104.589 1462.212 1113.235 L 1461.924 1121.881 1513.962 1096.232 L 1566.000 1070.582 1566.000 1063.293 L 1566.000 1056.004 1514.000 1030.000 L 1462.000 1003.996 1462.022 1012.748 "/></g>
<g fill="#3E63DDFF" stroke="#3E63DDFF">
<path d="M 1416.000 1049.108 C 1400.875 1092.647 1388.355 1128.884 1388.177 1129.635 C 1387.924 1130.701 1389.593 1131.000 1395.787 1131.000 L 1403.721 1131.000 1417.052 1092.750 C 1424.384 1071.713 1436.986 1035.600 1445.058 1012.500 L 1459.733 970.500 1451.616 970.223 L 1443.500 969.946 1416.000 1049.108 "/></g>
</svg>
